<?xml version="1.0" encoding="UTF-8" standalone="no"?>
<!DOCTYPE svg PUBLIC "-//W3C//DTD SVG 1.1//EN" "http://www.w3.org/Graphics/SVG/1.1/DTD/svg11.dtd">
<!-- Created with Vectornator (http://vectornator.io/) -->
<svg height="100%" stroke-miterlimit="10" style="fill-rule:nonzero;clip-rule:evenodd;stroke-linecap:round;stroke-linejoin:round;" version="1.1" viewBox="0 0 2000 500" width="100%" xml:space="preserve" xmlns="http://www.w3.org/2000/svg" xmlns:xlink="http://www.w3.org/1999/xlink">
<defs/>
<clipPath id="ArtboardFrame">
<rect height="500" width="2000" x="0" y="0"/>
</clipPath>
<g clip-path="url(#ArtboardFrame)" id="Layer-1">
<path d="M0 0L2000 0L2000 500L0 500L0 0Z" fill="#222222" fill-rule="nonzero" opacity="1" stroke="none"/>
</g>
<g id="Layer-2">
<g opacity="1">
<g fill="#95ddb3" opacity="1" stroke="none">
<path d="M977.56 217.462C973.166 218.244 968.991 219.831 965.036 222.223C961.081 224.616 957.687 228.839 954.855 234.894C949.093 247.98 943.136 261.627 936.984 275.836C930.832 290.045 924.435 304.962 917.795 320.587C915.841 325.08 913.766 330.402 911.569 336.554C909.372 342.707 907.345 348.615 905.49 354.279L894.064 354.279C884.787 331.33 876.242 310.407 868.429 291.51C860.617 272.614 852.511 253.253 844.113 233.429C842.16 228.937 839.01 225.446 834.665 222.956C830.319 220.465 825.949 218.878 821.554 218.195L821.554 208.527L888.351 208.527L888.351 218.781C885.422 218.878 881.759 219.489 877.365 220.612C872.97 221.735 870.773 223.273 870.773 225.226C870.773 225.519 871.017 226.276 871.506 227.497C871.994 228.717 872.482 230.109 872.97 231.671C876.974 241.632 882.638 255.548 889.963 273.419C897.287 291.291 903.244 305.695 907.834 316.632C911.349 308.234 915.768 297.785 921.09 285.285C926.413 272.785 932.15 258.82 938.302 243.39C939.279 240.753 940.207 238.288 941.086 235.993C941.965 233.698 942.404 231.378 942.404 229.035C942.404 227.375 941.598 225.885 939.987 224.567C938.376 223.249 936.447 222.101 934.201 221.125C931.955 220.148 929.757 219.416 927.609 218.927C925.461 218.439 923.703 218.097 922.336 217.902L922.336 208.527L977.56 208.527L977.56 217.462Z"/>
<path d="M1103.18 318.976C1097.12 330.5 1089.02 339.679 1078.86 346.515C1068.71 353.351 1057.04 356.769 1043.85 356.769C1032.23 356.769 1022.05 354.718 1013.31 350.617C1004.57 346.515 997.369 340.949 991.705 333.918C986.041 326.886 981.817 318.683 979.034 309.308C976.251 299.933 974.859 290.021 974.859 279.572C974.859 270.197 976.348 260.993 979.327 251.959C982.305 242.926 986.675 234.796 992.437 227.57C998.004 220.636 1004.91 215.045 1013.16 210.797C1021.42 206.549 1030.67 204.425 1040.92 204.425C1051.47 204.425 1060.5 206.085 1068.02 209.406C1075.54 212.726 1081.65 217.267 1086.33 223.029C1090.83 228.498 1094.17 234.943 1096.37 242.365C1098.57 249.787 1099.66 257.843 1099.66 266.535L1099.66 276.203L1004.01 276.203C1004.01 285.675 1004.91 294.269 1006.72 301.984C1008.53 309.699 1011.38 316.486 1015.29 322.345C1019.1 328.009 1024.08 332.477 1030.23 335.749C1036.38 339.02 1043.71 340.656 1052.2 340.656C1060.89 340.656 1068.39 338.629 1074.69 334.577C1080.99 330.524 1087.07 323.224 1092.93 312.677L1103.18 318.976ZM1070.81 263.898C1070.81 258.429 1070.34 252.57 1069.41 246.32C1068.49 240.07 1067 234.845 1064.95 230.646C1062.7 226.154 1059.62 222.492 1055.72 219.66C1051.81 216.828 1046.78 215.412 1040.63 215.412C1030.38 215.412 1021.86 219.684 1015.07 228.229C1008.28 236.774 1004.6 248.664 1004.01 263.898L1070.81 263.898Z"/>
<path d="M1270.4 352.96L1199.65 352.96L1199.65 343.293C1201.89 343.097 1204.36 342.902 1207.05 342.707C1209.73 342.511 1211.95 342.121 1213.71 341.535C1216.44 340.656 1218.47 339.118 1219.79 336.92C1221.11 334.723 1221.77 331.867 1221.77 328.351L1221.77 254.084C1221.77 243.83 1219.35 235.919 1214.52 230.353C1209.68 224.787 1203.8 222.003 1196.86 222.003C1191.69 222.003 1186.95 222.809 1182.66 224.42C1178.36 226.032 1174.55 228.009 1171.23 230.353C1168.01 232.599 1165.44 235.016 1163.54 237.604C1161.64 240.192 1160.24 242.267 1159.36 243.83L1159.36 326.886C1159.36 330.207 1160.05 332.941 1161.42 335.089C1162.78 337.238 1164.83 338.898 1167.57 340.07C1169.62 341.046 1171.84 341.779 1174.23 342.267C1176.63 342.755 1179.09 343.097 1181.63 343.293L1181.63 352.96L1110.88 352.96L1110.88 343.293C1113.12 343.097 1115.44 342.902 1117.84 342.707C1120.23 342.511 1122.3 342.121 1124.06 341.535C1126.8 340.656 1128.82 339.118 1130.14 336.92C1131.46 334.723 1132.12 331.867 1132.12 328.351L1132.12 239.142C1132.12 235.822 1131.41 232.77 1129.99 229.987C1128.58 227.204 1126.6 224.933 1124.06 223.175C1122.21 222.003 1120.01 221.149 1117.47 220.612C1114.93 220.075 1112.2 219.709 1109.27 219.513L1109.27 209.992L1157.31 206.769L1159.36 208.82L1159.36 229.181L1160.1 229.181C1162.44 226.837 1165.37 224.03 1168.89 220.758C1172.4 217.487 1175.72 214.826 1178.85 212.775C1182.46 210.431 1186.76 208.478 1191.74 206.916C1196.72 205.353 1202.33 204.572 1208.58 204.572C1222.45 204.572 1232.73 208.893 1239.42 217.536C1246.11 226.178 1249.45 237.677 1249.45 252.033L1249.45 327.179C1249.45 330.597 1250.04 333.356 1251.21 335.456C1252.38 337.555 1254.38 339.191 1257.22 340.363C1259.56 341.339 1261.59 342.023 1263.3 342.414C1265 342.804 1267.37 343.097 1270.4 343.293L1270.4 352.96Z"/>
<path d="M1368.33 346.662C1361.99 349.298 1355.98 351.52 1350.32 353.327C1344.65 355.133 1337.72 356.037 1329.52 356.037C1317.41 356.037 1308.89 352.985 1303.95 346.881C1299.02 340.778 1296.56 332.16 1296.56 321.027L1296.56 223.175L1270.48 223.175L1270.48 209.113L1297.14 209.113L1297.14 164.142L1323.8 164.142L1323.8 209.113L1365.26 209.113L1365.26 223.175L1324.1 223.175L1324.1 303.888C1324.1 309.943 1324.32 314.997 1324.75 319.049C1325.19 323.102 1326.24 326.642 1327.9 329.669C1329.47 332.501 1331.81 334.65 1334.94 336.115C1338.06 337.58 1342.26 338.312 1347.53 338.312C1349.97 338.312 1353.56 338.092 1358.3 337.653C1363.04 337.213 1366.38 336.652 1368.33 335.968L1368.33 346.662Z"/>
<path d="M1528.52 350.324L1481.5 353.546L1479.3 351.496L1479.3 333.185L1478.43 333.185C1476.08 335.626 1473.44 338.239 1470.52 341.022C1467.59 343.805 1464.22 346.32 1460.41 348.566C1456.01 351.203 1451.77 353.205 1447.66 354.572C1443.56 355.939 1437.75 356.623 1430.23 356.623C1417.44 356.623 1407.7 352.448 1401.01 344.098C1394.32 335.749 1390.97 323.615 1390.97 307.697L1390.97 238.556C1390.97 235.041 1390.32 232.086 1389 229.694C1387.68 227.301 1385.75 225.226 1383.21 223.468C1381.45 222.296 1379.26 221.442 1376.62 220.905C1373.98 220.368 1371.2 220.001 1368.27 219.806L1368.27 210.285L1416.46 206.769L1418.66 208.82L1418.66 309.162C1418.66 319.611 1421 327.472 1425.69 332.746C1430.38 338.019 1435.99 340.656 1442.54 340.656C1447.91 340.656 1452.69 339.826 1456.89 338.166C1461.09 336.505 1464.61 334.552 1467.44 332.306C1470.08 330.255 1472.4 328.083 1474.4 325.788C1476.4 323.493 1477.94 321.369 1479.01 319.416L1479.01 237.531C1479.01 234.308 1478.33 231.452 1476.96 228.961C1475.59 226.471 1473.69 224.347 1471.25 222.589C1469.49 221.418 1466.88 220.709 1463.41 220.465C1459.94 220.221 1456.06 220.001 1451.77 219.806L1451.77 210.285L1504.21 206.769L1506.4 208.82L1506.4 323.517C1506.4 326.837 1507.09 329.669 1508.45 332.013C1509.82 334.357 1511.73 336.359 1514.17 338.019C1515.93 339.093 1518.03 339.801 1520.47 340.143C1522.91 340.485 1525.59 340.705 1528.52 340.802L1528.52 350.324Z"/>
<path d="M1647.84 227.13C1647.84 232.111 1646.62 236.53 1644.18 240.387C1641.74 244.245 1637.98 246.173 1632.9 246.173C1627.43 246.173 1623.26 244.757 1620.38 241.925C1617.5 239.093 1616.06 235.968 1616.06 232.55C1616.06 230.402 1616.23 228.449 1616.57 226.691C1616.91 224.933 1617.23 223.175 1617.52 221.418C1612.93 221.418 1607.56 223.273 1601.41 226.984C1595.26 230.695 1590.03 235.968 1585.73 242.804L1585.73 326.886C1585.73 330.304 1586.39 333.087 1587.71 335.236C1589.03 337.384 1591.11 338.996 1593.94 340.07C1596.38 341.046 1599.53 341.779 1603.39 342.267C1607.24 342.755 1610.59 343.097 1613.42 343.293L1613.42 352.96L1537.25 352.96L1537.25 343.293C1539.49 343.097 1541.81 342.902 1544.21 342.707C1546.6 342.511 1548.67 342.121 1550.43 341.535C1553.17 340.656 1555.19 339.118 1556.51 336.92C1557.83 334.723 1558.49 331.867 1558.49 328.351L1558.49 239.142C1558.49 236.115 1557.78 233.136 1556.36 230.207C1554.95 227.277 1552.97 224.933 1550.43 223.175C1548.58 222.003 1546.38 221.149 1543.84 220.612C1541.3 220.075 1538.57 219.709 1535.64 219.513L1535.64 209.992L1583.68 206.769L1585.73 208.82L1585.73 229.181L1586.47 229.181C1592.52 221.271 1599.26 215.265 1606.68 211.164C1614.1 207.062 1620.89 205.011 1627.04 205.011C1633.19 205.011 1638.2 207.013 1642.06 211.017C1645.91 215.021 1647.84 220.392 1647.84 227.13Z"/>
<path d="M1779.47 318.976C1773.41 330.5 1765.31 339.679 1755.15 346.515C1745 353.351 1733.33 356.769 1720.14 356.769C1708.52 356.769 1698.34 354.718 1689.6 350.617C1680.86 346.515 1673.66 340.949 1667.99 333.918C1662.33 326.886 1658.11 318.683 1655.32 309.308C1652.54 299.933 1651.15 290.021 1651.15 279.572C1651.15 270.197 1652.64 260.993 1655.62 251.959C1658.59 242.926 1662.96 234.796 1668.73 227.57C1674.29 220.636 1681.2 215.045 1689.45 210.797C1697.71 206.549 1706.96 204.425 1717.21 204.425C1727.76 204.425 1736.79 206.085 1744.31 209.406C1751.83 212.726 1757.94 217.267 1762.62 223.029C1767.11 228.498 1770.46 234.943 1772.66 242.365C1774.85 249.787 1775.95 257.843 1775.95 266.535L1775.95 276.203L1680.3 276.203C1680.3 285.675 1681.2 294.269 1683.01 301.984C1684.82 309.699 1687.67 316.486 1691.58 322.345C1695.39 328.009 1700.37 332.477 1706.52 335.749C1712.67 339.02 1720 340.656 1728.49 340.656C1737.18 340.656 1744.68 338.629 1750.98 334.577C1757.28 330.524 1763.36 323.224 1769.21 312.677L1779.47 318.976ZM1747.1 263.898C1747.1 258.429 1746.63 252.57 1745.7 246.32C1744.78 240.07 1743.29 234.845 1741.24 230.646C1738.99 226.154 1735.91 222.492 1732.01 219.66C1728.1 216.828 1723.07 215.412 1716.92 215.412C1706.67 215.412 1698.15 219.684 1691.36 228.229C1684.57 236.774 1680.88 248.664 1680.3 263.898L1747.1 263.898Z"/>
<path d="M1882.53 282.209C1886.53 285.724 1889.61 289.777 1891.76 294.367C1893.91 298.957 1894.98 304.572 1894.98 311.212C1894.98 324.591 1889.98 335.529 1879.97 344.025C1869.96 352.521 1856.99 356.769 1841.07 356.769C1832.68 356.769 1824.94 355.255 1817.86 352.228C1810.78 349.201 1805.72 346.418 1802.69 343.878L1799.77 353.4L1788.78 353.4L1787.31 303.156L1797.42 303.156C1798.2 306.964 1799.86 311.408 1802.4 316.486C1804.94 321.564 1808.02 326.154 1811.63 330.255C1815.44 334.552 1820 338.166 1825.33 341.095C1830.65 344.025 1836.63 345.49 1843.27 345.49C1852.65 345.49 1859.87 343.366 1864.95 339.118C1870.03 334.87 1872.57 328.791 1872.57 320.88C1872.57 316.779 1871.76 313.239 1870.15 310.26C1868.54 307.282 1866.17 304.669 1863.05 302.423C1859.82 300.177 1855.87 298.151 1851.18 296.344C1846.49 294.538 1841.27 292.755 1835.51 290.998C1830.92 289.63 1825.82 287.751 1820.2 285.358C1814.58 282.965 1809.78 280.158 1805.77 276.935C1801.47 273.517 1797.96 269.318 1795.22 264.337C1792.49 259.357 1791.12 253.498 1791.12 246.759C1791.12 234.943 1795.52 224.933 1804.31 216.73C1813.1 208.527 1824.86 204.425 1839.61 204.425C1845.27 204.425 1851.06 205.158 1856.97 206.623C1862.88 208.087 1867.69 209.845 1871.4 211.896L1874.77 204.279L1885.31 204.279L1887.51 250.714L1877.4 250.714C1875.35 240.363 1870.93 231.94 1864.15 225.446C1857.36 218.952 1849.08 215.705 1839.32 215.705C1831.31 215.705 1825.01 217.707 1820.42 221.71C1815.83 225.714 1813.53 230.548 1813.53 236.212C1813.53 240.607 1814.29 244.269 1815.81 247.199C1817.32 250.128 1819.59 252.619 1822.62 254.669C1825.55 256.623 1829.23 258.454 1833.68 260.163C1838.12 261.872 1843.61 263.8 1850.16 265.949C1856.6 268 1862.68 270.392 1868.39 273.126C1874.11 275.861 1878.82 278.888 1882.53 282.209Z"/>
</g>
<g fill="#ffffff" opacity="1" stroke="none">
<path d="M265.08 352.96L221.428 352.96C213.811 341.925 205.657 330.109 196.965 317.511C188.274 304.914 179.241 292.658 169.866 280.744L157.854 292.023L157.854 326.3C157.854 329.816 158.489 332.721 159.758 335.016C161.028 337.311 163.078 338.996 165.91 340.07C168.254 341.046 170.5 341.779 172.649 342.267C174.797 342.755 177.287 343.097 180.119 343.293L180.119 352.96L109.221 352.96L109.221 343.293C111.467 343.097 113.811 342.877 116.252 342.633C118.694 342.389 120.744 342.023 122.405 341.535C125.139 340.656 127.19 339.118 128.557 336.92C129.924 334.723 130.608 331.867 130.608 328.351L130.608 160.48C130.608 156.867 129.851 153.473 128.337 150.299C126.824 147.126 124.846 144.709 122.405 143.048C120.354 141.486 117.156 140.46 112.81 139.972C108.464 139.484 104.973 139.142 102.336 138.947L102.336 129.572L155.803 126.203L157.854 128.4L157.854 281.183C165.471 273.566 173.699 265.387 182.536 256.647C191.374 247.907 198.821 240.119 204.875 233.283C205.657 232.404 206.511 231.256 207.439 229.84C208.367 228.424 208.83 227.277 208.83 226.398C208.83 223.761 206.706 221.808 202.458 220.539C198.21 219.269 194.133 218.39 190.227 217.902L190.227 208.527L253.801 208.527L253.801 217.609C245.598 220.05 238.347 223.102 232.048 226.764C225.749 230.426 220.94 233.722 217.619 236.652C215.276 238.605 211.955 241.779 207.659 246.173C203.362 250.568 197.356 256.33 189.641 263.459C197.649 273.322 206.658 285.138 216.667 298.908C226.677 312.677 233.977 322.638 238.567 328.791C242.864 334.552 246.721 338.312 250.139 340.07C253.557 341.828 258.537 342.902 265.08 343.293L265.08 352.96Z"/>
<path d="M392.018 318.976C385.963 330.5 377.858 339.679 367.701 346.515C357.545 353.351 345.875 356.769 332.692 356.769C321.071 356.769 310.89 354.718 302.15 350.617C293.41 346.515 286.207 340.949 280.543 333.918C274.879 326.886 270.656 318.683 267.872 309.308C265.089 299.933 263.698 290.021 263.698 279.572C263.698 270.197 265.187 260.993 268.165 251.959C271.144 242.926 275.514 234.796 281.276 227.57C286.842 220.636 293.751 215.045 302.003 210.797C310.255 206.549 319.508 204.425 329.762 204.425C340.309 204.425 349.342 206.085 356.862 209.406C364.381 212.726 370.485 217.267 375.172 223.029C379.664 228.498 383.009 234.943 385.206 242.365C387.404 249.787 388.502 257.843 388.502 266.535L388.502 276.203L292.848 276.203C292.848 285.675 293.751 294.269 295.558 301.984C297.365 309.699 300.221 316.486 304.127 322.345C307.936 328.009 312.916 332.477 319.069 335.749C325.221 339.02 332.545 340.656 341.041 340.656C349.733 340.656 357.228 338.629 363.527 334.577C369.826 330.524 375.905 323.224 381.764 312.677L392.018 318.976ZM359.645 263.898C359.645 258.429 359.181 252.57 358.253 246.32C357.326 240.07 355.836 234.845 353.785 230.646C351.539 226.154 348.463 222.492 344.557 219.66C340.651 216.828 335.621 215.412 329.469 215.412C319.215 215.412 310.695 219.684 303.908 228.229C297.12 236.774 293.434 248.664 292.848 263.898L359.645 263.898Z"/>
<path d="M495.078 282.209C499.082 285.724 502.159 289.777 504.307 294.367C506.455 298.957 507.53 304.572 507.53 311.212C507.53 324.591 502.525 335.529 492.515 344.025C482.505 352.521 469.541 356.769 453.623 356.769C445.225 356.769 437.486 355.255 430.406 352.228C423.326 349.201 418.272 346.418 415.244 343.878L412.315 353.4L401.328 353.4L399.864 303.156L409.971 303.156C410.752 306.964 412.412 311.408 414.951 316.486C417.491 321.564 420.567 326.154 424.18 330.255C427.989 334.552 432.554 338.166 437.876 341.095C443.199 344.025 449.18 345.49 455.821 345.49C465.196 345.49 472.422 343.366 477.5 339.118C482.578 334.87 485.118 328.791 485.118 320.88C485.118 316.779 484.312 313.239 482.701 310.26C481.089 307.282 478.721 304.669 475.596 302.423C472.373 300.177 468.418 298.151 463.731 296.344C459.043 294.538 453.819 292.755 448.057 290.998C443.467 289.63 438.365 287.751 432.749 285.358C427.134 282.965 422.325 280.158 418.321 276.935C414.024 273.517 410.508 269.318 407.774 264.337C405.039 259.357 403.672 253.498 403.672 246.759C403.672 234.943 408.067 224.933 416.856 216.73C425.645 208.527 437.412 204.425 452.159 204.425C457.823 204.425 463.609 205.158 469.517 206.623C475.425 208.087 480.235 209.845 483.946 211.896L487.315 204.279L497.862 204.279L500.059 250.714L489.951 250.714C487.901 240.363 483.482 231.94 476.695 225.446C469.908 218.952 461.631 215.705 451.866 215.705C443.858 215.705 437.559 217.707 432.969 221.71C428.379 225.714 426.084 230.548 426.084 236.212C426.084 240.607 426.841 244.269 428.355 247.199C429.868 250.128 432.139 252.619 435.166 254.669C438.096 256.623 441.783 258.454 446.226 260.163C450.669 261.872 456.162 263.8 462.705 265.949C469.151 268 475.23 270.392 480.943 273.126C486.656 275.861 491.368 278.888 495.078 282.209Z"/>
<path d="M588.032 352.96L517.573 352.96L517.573 343.293C519.819 343.097 522.211 342.877 524.75 342.633C527.289 342.389 529.389 342.023 531.049 341.535C533.784 340.656 535.834 339.118 537.201 336.92C538.569 334.723 539.252 331.867 539.252 328.351L539.252 161.066C539.252 157.55 538.495 154.254 536.982 151.178C535.468 148.102 533.491 145.685 531.049 143.927C529.291 142.755 526.069 141.681 521.381 140.705C516.694 139.728 512.934 139.142 510.102 138.947L510.102 129.572L564.448 126.203L566.498 128.4L566.498 326.593C566.498 330.011 567.133 332.819 568.403 335.016C569.672 337.213 571.723 338.898 574.555 340.07C576.703 341.046 578.827 341.779 580.927 342.267C583.027 342.755 585.395 343.097 588.032 343.293L588.032 352.96Z"/>
<path d="M667.362 352.96L597.489 352.96L597.489 343.293C599.735 343.097 602.054 342.902 604.447 342.707C606.839 342.511 608.914 342.121 610.672 341.535C613.407 340.656 615.433 339.118 616.751 336.92C618.07 334.723 618.729 331.867 618.729 328.351L618.729 239.142C618.729 236.017 618.021 233.161 616.605 230.573C615.189 227.985 613.211 225.812 610.672 224.054C608.817 222.882 606.131 221.881 602.616 221.051C599.1 220.221 595.877 219.709 592.948 219.513L592.948 209.992L643.924 206.769L645.975 208.82L645.975 326.593C645.975 330.011 646.634 332.843 647.952 335.089C649.271 337.335 651.346 338.996 654.178 340.07C656.326 340.949 658.426 341.657 660.477 342.194C662.528 342.731 664.823 343.097 667.362 343.293L667.362 352.96ZM648.905 149.787C648.905 155.353 647.074 160.211 643.411 164.362C639.749 168.512 635.233 170.587 629.862 170.587C624.881 170.587 620.56 168.61 616.898 164.655C613.236 160.7 611.405 156.183 611.405 151.105C611.405 145.734 613.236 141.046 616.898 137.043C620.56 133.039 624.881 131.037 629.862 131.037C635.428 131.037 639.993 132.917 643.558 136.676C647.122 140.436 648.905 144.806 648.905 149.787Z"/>
<path d="M835.608 352.96L764.856 352.96L764.856 343.293C767.102 343.097 769.568 342.902 772.253 342.707C774.939 342.511 777.16 342.121 778.918 341.535C781.653 340.656 783.679 339.118 784.997 336.92C786.316 334.723 786.975 331.867 786.975 328.351L786.975 254.084C786.975 243.83 784.558 235.919 779.724 230.353C774.89 224.787 769.006 222.003 762.073 222.003C756.897 222.003 752.16 222.809 747.864 224.42C743.567 226.032 739.758 228.009 736.438 230.353C733.215 232.599 730.652 235.016 728.747 237.604C726.843 240.192 725.451 242.267 724.573 243.83L724.573 326.886C724.573 330.207 725.256 332.941 726.623 335.089C727.991 337.238 730.041 338.898 732.776 340.07C734.826 341.046 737.048 341.779 739.441 342.267C741.833 342.755 744.299 343.097 746.838 343.293L746.838 352.96L676.086 352.96L676.086 343.293C678.332 343.097 680.652 342.902 683.044 342.707C685.437 342.511 687.512 342.121 689.27 341.535C692.004 340.656 694.031 339.118 695.349 336.92C696.667 334.723 697.326 331.867 697.326 328.351L697.326 239.142C697.326 235.822 696.618 232.77 695.202 229.987C693.786 227.204 691.809 224.933 689.27 223.175C687.414 222.003 685.217 221.149 682.678 220.612C680.139 220.075 677.405 219.709 674.475 219.513L674.475 209.992L722.522 206.769L724.573 208.82L724.573 229.181L725.305 229.181C727.649 226.837 730.578 224.03 734.094 220.758C737.61 217.487 740.93 214.826 744.055 212.775C747.668 210.431 751.965 208.478 756.946 206.916C761.926 205.353 767.541 204.572 773.791 204.572C787.659 204.572 797.937 208.893 804.626 217.536C811.316 226.178 814.66 237.677 814.66 252.033L814.66 327.179C814.66 330.597 815.246 333.356 816.418 335.456C817.59 337.555 819.592 339.191 822.424 340.363C824.768 341.339 826.794 342.023 828.503 342.414C830.212 342.804 832.58 343.097 835.608 343.293L835.608 352.96Z"/>
</g>
</g>
</g>
</svg>
