<?xml version="1.0" encoding="UTF-8" standalone="no"?>
<!DOCTYPE svg PUBLIC "-//W3C//DTD SVG 1.1//EN" "http://www.w3.org/Graphics/SVG/1.1/DTD/svg11.dtd">
<!-- Created with Vectornator (http://vectornator.io/) -->
<svg height="100%" stroke-miterlimit="10" style="fill-rule:nonzero;clip-rule:evenodd;stroke-linecap:round;stroke-linejoin:round;" version="1.1" viewBox="0 0 1800 341" width="100%" xml:space="preserve" xmlns="http://www.w3.org/2000/svg" xmlns:xlink="http://www.w3.org/1999/xlink">
<defs/>
<clipPath id="ArtboardFrame">
<rect height="341" width="1800" x="0" y="0"/>
</clipPath>
<g clip-path="url(#ArtboardFrame)" id="Layer-1">
<path d="M0 0L2000 0L2000 500L0 500L0 0Z" fill="#222222" fill-rule="nonzero" opacity="1" stroke="none"/>
</g>
<g id="Layer-2">
<g opacity="1">
<g fill="#95ddb3" opacity="1" stroke="none">
<path d="M877.56 139.502C873.166 140.283 868.991 141.87 865.036 144.263C861.081 146.655 857.687 150.879 854.855 156.934C849.093 170.02 843.136 183.667 836.984 197.876C830.832 212.085 824.435 227.002 817.795 242.627C815.841 247.119 813.766 252.441 811.569 258.594C809.372 264.746 807.345 270.654 805.49 276.318L794.064 276.318C784.787 253.369 776.242 232.446 768.429 213.55C760.617 194.653 752.511 175.293 744.113 155.469C742.16 150.977 739.01 147.485 734.665 144.995C730.319 142.505 725.949 140.918 721.554 140.234L721.554 130.566L788.351 130.566L788.351 140.82C785.422 140.918 781.759 141.528 777.365 142.651C772.97 143.774 770.773 145.312 770.773 147.266C770.773 147.559 771.017 148.315 771.506 149.536C771.994 150.757 772.482 152.148 772.97 153.711C776.974 163.672 782.638 177.588 789.963 195.459C797.287 213.33 803.244 227.734 807.834 238.672C811.349 230.273 815.768 219.824 821.09 207.324C826.413 194.824 832.15 180.859 838.302 165.43C839.279 162.793 840.207 160.327 841.086 158.032C841.965 155.737 842.404 153.418 842.404 151.074C842.404 149.414 841.598 147.925 839.987 146.606C838.376 145.288 836.447 144.141 834.201 143.164C831.955 142.187 829.757 141.455 827.609 140.967C825.461 140.479 823.703 140.137 822.336 139.941L822.336 130.566L877.56 130.566L877.56 139.502Z"/>
<path d="M1003.18 241.016C997.125 252.539 989.019 261.719 978.863 268.555C968.707 275.391 957.037 278.809 943.853 278.809C932.232 278.809 922.051 276.758 913.311 272.656C904.571 268.555 897.369 262.988 891.705 255.957C886.041 248.926 881.817 240.723 879.034 231.348C876.251 221.973 874.859 212.061 874.859 201.611C874.859 192.236 876.348 183.032 879.327 173.999C882.305 164.966 886.675 156.836 892.437 149.609C898.004 142.676 904.913 137.085 913.165 132.837C921.417 128.589 930.67 126.465 940.924 126.465C951.47 126.465 960.504 128.125 968.023 131.445C975.543 134.766 981.646 139.307 986.334 145.068C990.826 150.537 994.171 156.982 996.368 164.404C998.565 171.826 999.664 179.883 999.664 188.574L999.664 198.242L904.009 198.242C904.009 207.715 904.913 216.309 906.719 224.023C908.526 231.738 911.382 238.525 915.289 244.385C919.097 250.049 924.078 254.517 930.23 257.788C936.382 261.06 943.707 262.695 952.203 262.695C960.894 262.695 968.389 260.669 974.688 256.616C980.987 252.563 987.066 245.264 992.925 234.717L1003.18 241.016ZM970.806 185.938C970.806 180.469 970.342 174.609 969.415 168.359C968.487 162.109 966.998 156.885 964.947 152.686C962.701 148.193 959.625 144.531 955.718 141.699C951.812 138.867 946.783 137.451 940.631 137.451C930.377 137.451 921.856 141.724 915.069 150.269C908.282 158.813 904.595 170.703 904.009 185.938L970.806 185.938Z"/>
<path d="M1170.4 275L1099.65 275L1099.65 265.332C1101.89 265.137 1104.36 264.941 1107.05 264.746C1109.73 264.551 1111.95 264.16 1113.71 263.574C1116.44 262.695 1118.47 261.157 1119.79 258.96C1121.11 256.763 1121.77 253.906 1121.77 250.391L1121.77 176.123C1121.77 165.869 1119.35 157.959 1114.52 152.393C1109.68 146.826 1103.8 144.043 1096.86 144.043C1091.69 144.043 1086.95 144.849 1082.66 146.46C1078.36 148.071 1074.55 150.049 1071.23 152.393C1068.01 154.639 1065.44 157.056 1063.54 159.644C1061.64 162.231 1060.24 164.307 1059.36 165.869L1059.36 248.926C1059.36 252.246 1060.05 254.98 1061.42 257.129C1062.78 259.277 1064.83 260.937 1067.57 262.109C1069.62 263.086 1071.84 263.818 1074.23 264.307C1076.63 264.795 1079.09 265.137 1081.63 265.332L1081.63 275L1010.88 275L1010.88 265.332C1013.12 265.137 1015.44 264.941 1017.84 264.746C1020.23 264.551 1022.3 264.16 1024.06 263.574C1026.8 262.695 1028.82 261.157 1030.14 258.96C1031.46 256.763 1032.12 253.906 1032.12 250.391L1032.12 161.182C1032.12 157.861 1031.41 154.81 1029.99 152.026C1028.58 149.243 1026.6 146.973 1024.06 145.215C1022.21 144.043 1020.01 143.188 1017.47 142.651C1014.93 142.114 1012.2 141.748 1009.27 141.553L1009.27 132.031L1057.31 128.809L1059.36 130.859L1059.36 151.221L1060.1 151.221C1062.44 148.877 1065.37 146.069 1068.89 142.798C1072.4 139.526 1075.72 136.865 1078.85 134.814C1082.46 132.471 1086.76 130.518 1091.74 128.955C1096.72 127.393 1102.33 126.611 1108.58 126.611C1122.45 126.611 1132.73 130.933 1139.42 139.575C1146.11 148.218 1149.45 159.717 1149.45 174.072L1149.45 249.219C1149.45 252.637 1150.04 255.396 1151.21 257.495C1152.38 259.595 1154.38 261.23 1157.22 262.402C1159.56 263.379 1161.59 264.062 1163.3 264.453C1165 264.844 1167.37 265.137 1170.4 265.332L1170.4 275Z"/>
<path d="M1268.33 268.701C1261.99 271.338 1255.98 273.56 1250.32 275.366C1244.65 277.173 1237.72 278.076 1229.52 278.076C1217.41 278.076 1208.89 275.024 1203.95 268.921C1199.02 262.817 1196.56 254.199 1196.56 243.066L1196.56 145.215L1170.48 145.215L1170.48 131.152L1197.14 131.152L1197.14 86.1816L1223.8 86.1816L1223.8 131.152L1265.26 131.152L1265.26 145.215L1224.1 145.215L1224.1 225.928C1224.1 231.982 1224.32 237.036 1224.75 241.089C1225.19 245.142 1226.24 248.682 1227.9 251.709C1229.47 254.541 1231.81 256.689 1234.94 258.154C1238.06 259.619 1242.26 260.352 1247.53 260.352C1249.97 260.352 1253.56 260.132 1258.3 259.692C1263.04 259.253 1266.38 258.691 1268.33 258.008L1268.33 268.701Z"/>
<path d="M1428.52 272.363L1381.5 275.586L1379.3 273.535L1379.3 255.225L1378.43 255.225C1376.08 257.666 1373.44 260.278 1370.52 263.062C1367.59 265.845 1364.22 268.359 1360.41 270.605C1356.01 273.242 1351.77 275.244 1347.66 276.611C1343.56 277.979 1337.75 278.662 1330.23 278.662C1317.44 278.662 1307.7 274.487 1301.01 266.138C1294.32 257.788 1290.97 245.654 1290.97 229.736L1290.97 160.596C1290.97 157.08 1290.32 154.126 1289 151.733C1287.68 149.341 1285.75 147.266 1283.21 145.508C1281.45 144.336 1279.26 143.481 1276.62 142.944C1273.98 142.407 1271.2 142.041 1268.27 141.846L1268.27 132.324L1316.46 128.809L1318.66 130.859L1318.66 231.201C1318.66 241.65 1321 249.512 1325.69 254.785C1330.38 260.059 1335.99 262.695 1342.54 262.695C1347.91 262.695 1352.69 261.865 1356.89 260.205C1361.09 258.545 1364.61 256.592 1367.44 254.346C1370.08 252.295 1372.4 250.122 1374.4 247.827C1376.4 245.532 1377.94 243.408 1379.01 241.455L1379.01 159.57C1379.01 156.348 1378.33 153.491 1376.96 151.001C1375.59 148.511 1373.69 146.387 1371.25 144.629C1369.49 143.457 1366.88 142.749 1363.41 142.505C1359.94 142.261 1356.06 142.041 1351.77 141.846L1351.77 132.324L1404.21 128.809L1406.4 130.859L1406.4 245.557C1406.4 248.877 1407.09 251.709 1408.45 254.053C1409.82 256.396 1411.73 258.398 1414.17 260.059C1415.93 261.133 1418.03 261.841 1420.47 262.183C1422.91 262.524 1425.59 262.744 1428.52 262.842L1428.52 272.363Z"/>
<path d="M1547.84 149.17C1547.84 154.15 1546.62 158.569 1544.18 162.427C1541.74 166.284 1537.98 168.213 1532.9 168.213C1527.43 168.213 1523.26 166.797 1520.38 163.965C1517.5 161.133 1516.06 158.008 1516.06 154.59C1516.06 152.441 1516.23 150.488 1516.57 148.73C1516.91 146.973 1517.23 145.215 1517.52 143.457C1512.93 143.457 1507.56 145.312 1501.41 149.023C1495.26 152.734 1490.03 158.008 1485.73 164.844L1485.73 248.926C1485.73 252.344 1486.39 255.127 1487.71 257.275C1489.03 259.424 1491.11 261.035 1493.94 262.109C1496.38 263.086 1499.53 263.818 1503.39 264.307C1507.24 264.795 1510.59 265.137 1513.42 265.332L1513.42 275L1437.25 275L1437.25 265.332C1439.49 265.137 1441.81 264.941 1444.21 264.746C1446.6 264.551 1448.67 264.16 1450.43 263.574C1453.17 262.695 1455.19 261.157 1456.51 258.96C1457.83 256.763 1458.49 253.906 1458.49 250.391L1458.49 161.182C1458.49 158.154 1457.78 155.176 1456.36 152.246C1454.95 149.316 1452.97 146.973 1450.43 145.215C1448.58 144.043 1446.38 143.188 1443.84 142.651C1441.3 142.114 1438.57 141.748 1435.64 141.553L1435.64 132.031L1483.68 128.809L1485.73 130.859L1485.73 151.221L1486.47 151.221C1492.52 143.311 1499.26 137.305 1506.68 133.203C1514.1 129.102 1520.89 127.051 1527.04 127.051C1533.19 127.051 1538.2 129.053 1542.06 133.057C1545.91 137.061 1547.84 142.432 1547.84 149.17Z"/>
<path d="M1679.47 241.016C1673.41 252.539 1665.31 261.719 1655.15 268.555C1645 275.391 1633.33 278.809 1620.14 278.809C1608.52 278.809 1598.34 276.758 1589.6 272.656C1580.86 268.555 1573.66 262.988 1567.99 255.957C1562.33 248.926 1558.11 240.723 1555.32 231.348C1552.54 221.973 1551.15 212.061 1551.15 201.611C1551.15 192.236 1552.64 183.032 1555.62 173.999C1558.59 164.966 1562.96 156.836 1568.73 149.609C1574.29 142.676 1581.2 137.085 1589.45 132.837C1597.71 128.589 1606.96 126.465 1617.21 126.465C1627.76 126.465 1636.79 128.125 1644.31 131.445C1651.83 134.766 1657.94 139.307 1662.62 145.068C1667.11 150.537 1670.46 156.982 1672.66 164.404C1674.85 171.826 1675.95 179.883 1675.95 188.574L1675.95 198.242L1580.3 198.242C1580.3 207.715 1581.2 216.309 1583.01 224.023C1584.82 231.738 1587.67 238.525 1591.58 244.385C1595.39 250.049 1600.37 254.517 1606.52 257.788C1612.67 261.06 1620 262.695 1628.49 262.695C1637.18 262.695 1644.68 260.669 1650.98 256.616C1657.28 252.563 1663.36 245.264 1669.21 234.717L1679.47 241.016ZM1647.1 185.938C1647.1 180.469 1646.63 174.609 1645.7 168.359C1644.78 162.109 1643.29 156.885 1641.24 152.686C1638.99 148.193 1635.91 144.531 1632.01 141.699C1628.1 138.867 1623.07 137.451 1616.92 137.451C1606.67 137.451 1598.15 141.724 1591.36 150.269C1584.57 158.813 1580.88 170.703 1580.3 185.938L1647.1 185.938Z"/>
<path d="M1782.53 204.248C1786.53 207.764 1789.61 211.816 1791.76 216.406C1793.91 220.996 1794.98 226.611 1794.98 233.252C1794.98 246.631 1789.98 257.568 1779.97 266.064C1769.96 274.561 1756.99 278.809 1741.07 278.809C1732.68 278.809 1724.94 277.295 1717.86 274.268C1710.78 271.24 1705.72 268.457 1702.69 265.918L1699.77 275.439L1688.78 275.439L1687.31 225.195L1697.42 225.195C1698.2 229.004 1699.86 233.447 1702.4 238.525C1704.94 243.604 1708.02 248.193 1711.63 252.295C1715.44 256.592 1720 260.205 1725.33 263.135C1730.65 266.064 1736.63 267.529 1743.27 267.529C1752.65 267.529 1759.87 265.405 1764.95 261.157C1770.03 256.909 1772.57 250.83 1772.57 242.92C1772.57 238.818 1771.76 235.278 1770.15 232.3C1768.54 229.321 1766.17 226.709 1763.05 224.463C1759.82 222.217 1755.87 220.19 1751.18 218.384C1746.49 216.577 1741.27 214.795 1735.51 213.037C1730.92 211.67 1725.82 209.79 1720.2 207.397C1714.58 205.005 1709.78 202.197 1705.77 198.975C1701.47 195.557 1697.96 191.357 1695.22 186.377C1692.49 181.396 1691.12 175.537 1691.12 168.799C1691.12 156.982 1695.52 146.973 1704.31 138.77C1713.1 130.566 1724.86 126.465 1739.61 126.465C1745.27 126.465 1751.06 127.197 1756.97 128.662C1762.88 130.127 1767.69 131.885 1771.4 133.936L1774.77 126.318L1785.31 126.318L1787.51 172.754L1777.4 172.754C1775.35 162.402 1770.93 153.979 1764.15 147.485C1757.36 140.991 1749.08 137.744 1739.32 137.744C1731.31 137.744 1725.01 139.746 1720.42 143.75C1715.83 147.754 1713.53 152.588 1713.53 158.252C1713.53 162.646 1714.29 166.309 1715.81 169.238C1717.32 172.168 1719.59 174.658 1722.62 176.709C1725.55 178.662 1729.23 180.493 1733.68 182.202C1738.12 183.911 1743.61 185.84 1750.16 187.988C1756.6 190.039 1762.68 192.432 1768.39 195.166C1774.11 197.9 1778.82 200.928 1782.53 204.248Z"/>
</g>
<g fill="#ffffff" opacity="1" stroke="none">
<path d="M165.08 275L121.428 275C113.811 263.965 105.657 252.148 96.9652 239.551C88.2738 226.953 79.2406 214.697 69.8656 202.783L57.8538 214.062L57.8538 248.34C57.8538 251.855 58.4886 254.761 59.7581 257.056C61.0277 259.351 63.0785 261.035 65.9105 262.109C68.2542 263.086 70.5003 263.818 72.6488 264.307C74.7972 264.795 77.2874 265.137 80.1195 265.332L80.1195 275L9.22103 275L9.22103 265.332C11.4671 265.137 13.8109 264.917 16.2523 264.673C18.6937 264.429 20.7445 264.063 22.4046 263.574C25.139 262.695 27.1898 261.157 28.557 258.96C29.9242 256.763 30.6077 253.906 30.6077 250.391L30.6077 82.5195C30.6077 78.9062 29.8509 75.5127 28.3372 72.3389C26.8236 69.165 24.846 66.748 22.4046 65.0879C20.3538 63.5254 17.1556 62.5 12.8099 62.0117C8.46419 61.5234 4.97298 61.1816 2.33626 60.9863L2.33626 51.6113L55.8031 48.2422L57.8538 50.4395L57.8538 203.223C65.471 195.605 73.6986 187.427 82.5365 178.687C91.3744 169.946 98.8206 162.158 104.875 155.322C105.657 154.443 106.511 153.296 107.439 151.88C108.367 150.464 108.83 149.316 108.83 148.438C108.83 145.801 106.706 143.848 102.458 142.578C98.2103 141.309 94.1331 140.43 90.2269 139.941L90.2269 130.566L153.801 130.566L153.801 139.648C145.598 142.09 138.347 145.142 132.048 148.804C125.749 152.466 120.94 155.762 117.619 158.691C115.276 160.645 111.955 163.818 107.659 168.213C103.362 172.607 97.3558 178.369 89.641 185.498C97.6488 195.361 106.658 207.178 116.667 220.947C126.677 234.717 133.977 244.678 138.567 250.83C142.864 256.592 146.721 260.352 150.139 262.109C153.557 263.867 158.537 264.941 165.08 265.332L165.08 275Z"/>
<path d="M292.018 241.016C285.963 252.539 277.858 261.719 267.701 268.555C257.545 275.391 245.875 278.809 232.692 278.809C221.071 278.809 210.89 276.758 202.15 272.656C193.41 268.555 186.207 262.988 180.543 255.957C174.879 248.926 170.656 240.723 167.872 231.348C165.089 221.973 163.698 212.061 163.698 201.611C163.698 192.236 165.187 183.032 168.165 173.999C171.144 164.966 175.514 156.836 181.276 149.609C186.842 142.676 193.751 137.085 202.003 132.837C210.255 128.589 219.508 126.465 229.762 126.465C240.309 126.465 249.342 128.125 256.862 131.445C264.381 134.766 270.485 139.307 275.172 145.068C279.664 150.537 283.009 156.982 285.206 164.404C287.404 171.826 288.502 179.883 288.502 188.574L288.502 198.242L192.848 198.242C192.848 207.715 193.751 216.309 195.558 224.023C197.365 231.738 200.221 238.525 204.127 244.385C207.936 250.049 212.916 254.517 219.069 257.788C225.221 261.06 232.545 262.695 241.041 262.695C249.733 262.695 257.228 260.669 263.527 256.616C269.826 252.563 275.905 245.264 281.764 234.717L292.018 241.016ZM259.645 185.938C259.645 180.469 259.181 174.609 258.253 168.359C257.326 162.109 255.836 156.885 253.785 152.686C251.539 148.193 248.463 144.531 244.557 141.699C240.651 138.867 235.621 137.451 229.469 137.451C219.215 137.451 210.695 141.724 203.908 150.269C197.12 158.813 193.434 170.703 192.848 185.938L259.645 185.938Z"/>
<path d="M395.078 204.248C399.082 207.764 402.159 211.816 404.307 216.406C406.455 220.996 407.53 226.611 407.53 233.252C407.53 246.631 402.525 257.568 392.515 266.064C382.505 274.561 369.541 278.809 353.623 278.809C345.225 278.809 337.486 277.295 330.406 274.268C323.326 271.24 318.272 268.457 315.244 265.918L312.315 275.439L301.328 275.439L299.864 225.195L309.971 225.195C310.752 229.004 312.412 233.447 314.951 238.525C317.491 243.604 320.567 248.193 324.18 252.295C327.989 256.592 332.554 260.205 337.876 263.135C343.199 266.064 349.18 267.529 355.821 267.529C365.196 267.529 372.422 265.405 377.5 261.157C382.578 256.909 385.118 250.83 385.118 242.92C385.118 238.818 384.312 235.278 382.701 232.3C381.089 229.321 378.721 226.709 375.596 224.463C372.373 222.217 368.418 220.19 363.731 218.384C359.043 216.577 353.819 214.795 348.057 213.037C343.467 211.67 338.365 209.79 332.749 207.397C327.134 205.005 322.325 202.197 318.321 198.975C314.024 195.557 310.508 191.357 307.774 186.377C305.039 181.396 303.672 175.537 303.672 168.799C303.672 156.982 308.067 146.973 316.856 138.77C325.645 130.566 337.412 126.465 352.159 126.465C357.823 126.465 363.609 127.197 369.517 128.662C375.425 130.127 380.235 131.885 383.946 133.936L387.315 126.318L397.862 126.318L400.059 172.754L389.951 172.754C387.901 162.402 383.482 153.979 376.695 147.485C369.908 140.991 361.631 137.744 351.866 137.744C343.858 137.744 337.559 139.746 332.969 143.75C328.379 147.754 326.084 152.588 326.084 158.252C326.084 162.646 326.841 166.309 328.355 169.238C329.868 172.168 332.139 174.658 335.166 176.709C338.096 178.662 341.783 180.493 346.226 182.202C350.669 183.911 356.162 185.84 362.705 187.988C369.151 190.039 375.23 192.432 380.943 195.166C386.656 197.9 391.368 200.928 395.078 204.248Z"/>
<path d="M488.032 275L417.573 275L417.573 265.332C419.819 265.137 422.211 264.917 424.75 264.673C427.289 264.429 429.389 264.063 431.049 263.574C433.784 262.695 435.834 261.157 437.201 258.96C438.569 256.763 439.252 253.906 439.252 250.391L439.252 83.1055C439.252 79.5898 438.495 76.2939 436.982 73.2178C435.468 70.1416 433.491 67.7246 431.049 65.9668C429.291 64.7949 426.069 63.7207 421.381 62.7441C416.694 61.7676 412.934 61.1816 410.102 60.9863L410.102 51.6113L464.448 48.2422L466.498 50.4395L466.498 248.633C466.498 252.051 467.133 254.858 468.403 257.056C469.672 259.253 471.723 260.937 474.555 262.109C476.703 263.086 478.827 263.818 480.927 264.307C483.027 264.795 485.395 265.137 488.032 265.332L488.032 275Z"/>
<path d="M567.362 275L497.489 275L497.489 265.332C499.735 265.137 502.054 264.941 504.447 264.746C506.839 264.551 508.914 264.16 510.672 263.574C513.407 262.695 515.433 261.157 516.751 258.96C518.07 256.763 518.729 253.906 518.729 250.391L518.729 161.182C518.729 158.057 518.021 155.2 516.605 152.612C515.189 150.024 513.211 147.852 510.672 146.094C508.817 144.922 506.131 143.921 502.616 143.091C499.1 142.261 495.877 141.748 492.948 141.553L492.948 132.031L543.924 128.809L545.975 130.859L545.975 248.633C545.975 252.051 546.634 254.883 547.952 257.129C549.271 259.375 551.346 261.035 554.178 262.109C556.326 262.988 558.426 263.696 560.477 264.233C562.528 264.771 564.823 265.137 567.362 265.332L567.362 275ZM548.905 71.8262C548.905 77.3926 547.074 82.251 543.411 86.4014C539.749 90.5518 535.233 92.627 529.862 92.627C524.881 92.627 520.56 90.6494 516.898 86.6943C513.236 82.7393 511.405 78.2227 511.405 73.1445C511.405 67.7734 513.236 63.0859 516.898 59.082C520.56 55.0781 524.881 53.0762 529.862 53.0762C535.428 53.0762 539.993 54.9561 543.558 58.7158C547.122 62.4756 548.905 66.8457 548.905 71.8262Z"/>
<path d="M735.608 275L664.856 275L664.856 265.332C667.102 265.137 669.568 264.941 672.253 264.746C674.939 264.551 677.16 264.16 678.918 263.574C681.653 262.695 683.679 261.157 684.997 258.96C686.316 256.763 686.975 253.906 686.975 250.391L686.975 176.123C686.975 165.869 684.558 157.959 679.724 152.393C674.89 146.826 669.006 144.043 662.073 144.043C656.897 144.043 652.16 144.849 647.864 146.46C643.567 148.071 639.758 150.049 636.438 152.393C633.215 154.639 630.652 157.056 628.747 159.644C626.843 162.231 625.451 164.307 624.573 165.869L624.573 248.926C624.573 252.246 625.256 254.98 626.623 257.129C627.991 259.277 630.041 260.937 632.776 262.109C634.826 263.086 637.048 263.818 639.441 264.307C641.833 264.795 644.299 265.137 646.838 265.332L646.838 275L576.086 275L576.086 265.332C578.332 265.137 580.652 264.941 583.044 264.746C585.437 264.551 587.512 264.16 589.27 263.574C592.004 262.695 594.031 261.157 595.349 258.96C596.667 256.763 597.326 253.906 597.326 250.391L597.326 161.182C597.326 157.861 596.618 154.81 595.202 152.026C593.786 149.243 591.809 146.973 589.27 145.215C587.414 144.043 585.217 143.188 582.678 142.651C580.139 142.114 577.405 141.748 574.475 141.553L574.475 132.031L622.522 128.809L624.573 130.859L624.573 151.221L625.305 151.221C627.649 148.877 630.578 146.069 634.094 142.798C637.61 139.526 640.93 136.865 644.055 134.814C647.668 132.471 651.965 130.518 656.946 128.955C661.926 127.393 667.541 126.611 673.791 126.611C687.659 126.611 697.937 130.933 704.626 139.575C711.316 148.218 714.66 159.717 714.66 174.072L714.66 249.219C714.66 252.637 715.246 255.396 716.418 257.495C717.59 259.595 719.592 261.23 722.424 262.402C724.768 263.379 726.794 264.062 728.503 264.453C730.212 264.844 732.58 265.137 735.608 265.332L735.608 275Z"/>
</g>
</g>
</g>
</svg>
